<svg xmlns="http://www.w3.org/2000/svg" version="1.1" xmlns:xlink="http://www.w3.org/1999/xlink" xmlns:svgjs="http://svgjs.dev/svgjs" viewBox="0 0 800 800"><defs><linearGradient x1="50%" y1="0%" x2="50%" y2="100%" id="ssscribble-grad"><stop stop-color="hsl(206, 75%, 49%)" stop-opacity="1" offset="0%"></stop><stop stop-color="hsl(331, 90%, 56%)" stop-opacity="1" offset="100%"></stop></linearGradient></defs><g fill="none" stroke-width="1.5" stroke="#062282" stroke-linecap="round"><path d="M802.21 594.42C670.45 627.28 658.99 643.47 763.37 636.94 923.82 622.66 1043.35 577 1063.44 505.95 979.36 450.43 829.63 419.37 678.18 458.08 569.78 577.57 534.05 759.24 560.99 926.79 635.26 979.61 717.73 881.75 781.53 693.68 825.53 588.14 833.07 673.41 812.15 908.74 771.8 1073.01 719.87 1000.19 668.16 761.12 612.34 646.05 565.77 803.74 532.91 1052.83 491.25 953.97 462.11 829.14 441.59 1064.48 405.56 957.47 343.9 726.06 249.26 574.5 134.82 602.84 5.17 757 -112.16 898.25 -182.17 941.99 -185.4 858.93 -111.22 710.37 6.01 544.64 126.27 424.82 186.25 360.54 142.08 340.24 3.84 346.31 -169.27 352.29 -286.34 366.15 -281.54 359.97 -149.78 327.12 26.88 294.26 142.95 236.28 139.25 160.45 23.62 92.5 -128.85 26.64 -235.07 -10.02 -250.28 -2.7 -165.03 62.98 -22.62 178.06 130.09 275.99 240.96 311.9 290.34 225.12 278.55 40.81 226.47 -152.31 163.07 -214.9 94.66 -97.59 49.3 104.34 31.22 187.3 28.86 41.47 47.39 -204.33 77.31 -285.34 112.64 -108.2 149.15 118.72 182.01 100.89 214.87 -148.17 242.53 -299.27 269.17 -171.57 301.22 80.18 342.47 171.75 401.77 31.6 476.8 -179.64 576.28 -235.48 695.34 -95.75 859.01 194.95 921.24 61.94 766.78 -74.16 658.59 -62.25 602.81 22.89 642.1 135.36 772.41 263.35 943.59 368.8 1071.91 445.06 1088.29 513.58 978.88 561.55 802.21 594.42Q802.21 594.42 802.21 594.42" opacity="0.72"></path><path d="M768.21 348.07C642.29 378.58 617.94 383.46 697.84 367.84 841.62 357.96 971.65 342.97 1030.38 345.36 999.5 386.08 890.86 476.78 749.41 621.07 613.44 774.13 522.37 899.11 486.67 928.48 503.63 844.71 553.57 684.76 612.22 557.91 676.04 579.53 720.37 756.58 741.01 970.78 749.16 1040.31 737.97 900.68 714.87 680.67 687.11 617.9 655.98 788.7 625.47 1018.83 594.96 1046.14 566.5 842.28 536.71 636.02 502.27 633.08 457.95 819.06 396.92 996.03 323.4 1005.98 228.82 838.5 117.97 634.4 12.29 524.32 -81.44 563.74 -138.4 690.37 -142.68 828.61 -87.79 890.11 16.39 861.83 126.06 761.34 207.34 631.33 215.86 511.72 134.76 402.3 -12.63 326.24 -168.19 275.67 -259.86 235.2 -241.69 203.53 -115.78 173.01 108.23 128.54 32.23 100.8 -157.53 167.59 -218.44 234.33 -190.55 314.09 -92.23 367.58 46.31 348.85 180.4 243.56 279.5 65.34 333.82 -101.29 341.27 -176.92 318.33 -98.64 270.86 73.67 223.16 213.81 187.93 181.53 149.15 -119.46 165.35 63.26 206.04 134.89 236.55 -95.21 275.78 -259.88 325.38 -185.39 378.34 46.37 446.86 203.41 532.02 156.3 620.13 -35.52 718.08 -185.23 812.58 -175.11 882.54 -16.52 918.9 179.6 904.57 303.39 845.47 314.05 747.56 232.89 640.78 126.87 574.23 29.59 573.71 -10.87 656.99 1.27 800.62 51.75 954.99 122.24 1051.75 189.67 1045.13 262.84 933.13 317.55 768.21 348.07Q768.21 348.07 768.21 348.07" opacity="0.89"></path><path d="M734.21 173.73C614.79 201.89 579.72 228.72 636.09 261 758.75 302.2 888.6 364.39 974.29 457.2 991.74 564.67 933.25 691.87 824.24 809.96 691.7 875.71 572.42 867.03 487.81 769.98 443.18 636.31 438.28 525.04 458.78 521.34 500.72 650.47 543.41 852.01 575.93 994.31 614.75 881.48 608.2 685.15 571.66 984.83 543.49 1019.98 505.24 847.26 456.11 637.33 404.55 572.25 338.56 695.35 258.31 883.15 176.97 989.14 87.9 928.9 2.55 757.09 -61.36 573.78 -96.89 481.1 -89.18 498.95 -41.48 601.98 44.39 719.92 147.6 799.7 227.29 830.1 260.52 800.26 222.42 735.38 116.09 645.01 -29.79 556.56 -163.32 484.67 -230.56 412.67 -201.19 361.88 -81.78 333.71 122.34 330.5 -168.05 425.55 -135.28 343.49 -36.67 220.31 86.67 61.94 204.5 -78.01 303.8 -132.81 367.61 -73.55 398.37 80.41 400.47 222.91 385.6 257.92 366.88 131.32 331.51 -146.69 321.85 120.44 355.97 168.89 384.14 -41.86 427.24 -214 483.81 -189.43 540.36 4.39 609.05 197.46 684.5 242.45 752.04 120.82 813.29 -55.46 854.61 -155.28 867.26 -122.27 843.88 22.38 781.5 192.98 700.59 326.95 610.63 376.07 541.35 353.73 525.99 279.05 575.09 198.24 687.38 139.57 895.14 90.11 943.22 131.47 734.21 173.73Q734.21 173.73 734.21 173.73" opacity="0.72"></path><path d="M700.21 313.19C587.93 339.01 544.38 384.92 578.88 450.24 677.58 516.4 797.95 600.13 897.7 691.15 952.99 764.47 944.4 815.17 880.94 817.95 778.04 770.02 662 670.96 555.99 551.01 468.2 474.17 411.26 477.63 382.29 587.94 382.46 841.11 430.08 776.94 439.86 551.46 442.95 580.76 432.23 759.67 406.41 950.83 380.59 992.23 340.9 851.01 289.11 649.05 237.85 536.2 176.46 587.04 110.17 745.01 51.53 902.71 -0.92 950.3 -35.91 870.86 -46.74 708 -26.87 546.44 27.08 448.1 99.24 431.98 184.67 485.4 260.69 566.89 297.26 658.63 282.7 720.94 208.48 746.84 89.81 748.27 -45.25 724.43 -153.91 690.37 -198.38 649.02 -160.06 612.15 -47.78 586.33 92.78 560.5 208.31 546.96 260.13 539.62 234.39 524.98 148.26 501.86 37.7 455.7 -67.71 385.07 -130.03 280.25 -136.76 148.72 -91.16 27.43 -5.17 -63.07 98.44 -80.82 208.3 -16.34 303.23 114.59 375.5 250.57 428.09 303.16 459.02 232.45 475.94 55.84 481.1 -121.06 483.68 -186.64 490.46 -83.8 494.8 108.19 508.62 244.21 534.44 202.88 560.26 11.74 596.85 -161.96 641.21 -181.35 683.12 -37.48 727.51 160.31 767.09 277.2 794.93 250.3 806.52 114.54 793.71 -32.28 761.24 -115.73 703.38 -88.58 627.36 22.09 557.58 175.88 502.21 312 483.48 399.73 517.1 436.75 602.58 428.57 726.92 399.99 906.82 335.34 895.93 285.12 700.21 313.19Q700.21 313.19 700.21 313.19" opacity="0.57"></path><path d="M666.15 573.05C561.65 596.52 511.94 631.69 526.92 673.11 600.53 708.79 704.07 738.87 805.33 750.13 884.39 739.46 917.24 695.75 901.56 618.16 843.83 534.92 757.24 455.39 660.39 416.2 560.76 447.84 475.09 554.14 408.87 712.66 358.63 857.89 326.62 931.4 306.92 886.3 293.79 666.95 267.52 658.15 237.03 916.84 213.56 962.84 181.75 852.43 144.32 668.3 109.16 525.32 73.1 507.06 42.24 606.77 21.26 764.1 14.61 882.76 28.68 908.2 58.72 835.83 110.69 700.22 179.55 557.75 275.02 412.01 301.98 439.6 178.77 516.41 60.31 567.81 -56.59 598.64 -139.26 608.33 -163.29 614.09 -118.34 603.98 -13.84 580.51 114.21 557.04 225.23 521.31 287.88 471.28 287.68 417.33 231.35 343.8 141.77 251.73 38.92 161.26 -44.25 68.56 -90.37 -4.13 -96.58 -33.73 -60.69 -8.67 4.74 76.91 91.71 188.62 183.61 296.41 268.68 344.34 348.56 294.46 412.77 154.75 461.85 -19.78 502.41 -136.69 533.01 -131.8 558.05 2.11 580.33 177.19 602.22 282.84 625.69 236.84 649.16 65.41 673.1 -104.35 695.09 -159.47 714.32 -70.81 726.42 103.81 726.55 259.74 718.15 322.04 692.6 269.58 648.9 148.79 600.01 14.71 541.8 -63.75 485.59 -64.62 450.91 5.32 442.84 118.54 473.47 237.96 544.02 351.73 648.25 434.1 768.3 485.44 875.09 514.86 944.8 527.47 954.08 536.06 900.51 538.9 794.26 549.57 666.21 573.04Q666.15 573.05 666.15 573.05" opacity="0.95"></path><path d="M632.73 592.77C509.45 619.16 570.1 603.73 702.84 547.23 790.64 500.68 851.06 443.31 875.7 390.34 865.81 366.93 823.01 380.92 758.59 447.62 678.11 557.69 595.08 695.92 518.39 822.65 445.48 889.77 385.43 871.51 338.17 765.31 297.35 622.2 265.61 503 239.82 476.33 216.22 565.81 194.55 730.98 173.43 882.73 152.31 931.64 132.72 850.35 116.48 691.58 102.43 537.02 95.75 463.41 99.96 493.5 110.61 606.88 135.86 741.1 176.22 837.81 220.35 869.58 273.05 824.77 325.85 728.61 362.58 603.55 380.33 486.72 368.23 398.03 321.59 337.65 242.22 310.62 138.93 305.01 31.54 316.87 -62.13 331.61 -119.03 339.03 -125.19 349.25 -75.62 345.33 20.73 324.21 136.11 303.09 240.57 265.76 309.7 215.71 330.35 168.45 302.72 115.28 239.6 66.8 152.65 35.8 66.96 28.02 -0.44 55.83 -45.02 111.94 -56.06 198.45 -37.06 295.82 6.85 364.31 67.9 384.09 135.71 330.36 210.18 211.66 279.87 58.5 340.35 -70.37 398.72 -115.97 446.67 -54.43 484.55 91.96 520.98 242.59 549.64 319.63 570.76 270.78 598.18 38.6 605.09 -22.83 578.57 201.37 554.69 323.07 519.8 360.29 477.89 315.18 442.64 210.45 411.91 97.27 395.68 14.88 404.37 -24.13 440.46 -7.79 507.04 48.16 596.44 133.69 701.08 225.85 803.51 309.01 882.11 389.87 921.77 452.79 909.27 498.69 848.29 540.93 748.11 571.64 632.73 592.77Q632.73 592.77 632.73 592.77" opacity="0.42"></path><path d="M598.14 345.11C483.25 365.36 495.81 338.67 599.31 310.58 681.88 303.98 753.18 310.72 803.2 342.45 831.31 401.37 831.62 491.08 808.5 604.38 766.06 715.23 710.89 807.77 650.95 852.46 585.43 833.52 523.71 750.36 469.49 624.87 416.3 508.45 371.91 441.41 336.64 460.51 302.29 565.06 275.63 716.65 256.85 848.89 238.07 898.96 228.06 844.12 227 715.52 226.86 566.57 237.08 458.32 257.74 424.81 279.41 470.85 310.21 569.73 346.8 680.12 391.9 798.59 411.05 724.07 352.1 592.2 282.53 495.98 194.39 414.06 98.06 350.95 9.69 297.85 -58.78 260.62 -92.4 233.93 -84.53 211.2 -33.14 191.86 54.14 173.08 156.67 154.31 253.12 136.98 325.23 124.29 362.12 115.57 360.42 118.64 325.83 139.2 263.81 169.76 191.06 220.76 121.28 288.04 36.53 377.49 2.57 378.18 44.25 229.03 88.16 99.08 136.96 -16.62 184.95 -76.43 236 -56.69 281.59 40.87 319.09 182.57 356.8 303.93 385.67 354.96 404.44 304.89 423.23 172.65 431.04 24.86 428.74 -72.43 426.66 -84.29 415.23 -6.56 396.72 123.61 372.34 312.87 349.15 341.08 379.28 219.71 424.27 131.02 489.57 68.26 572.34 38.29 661.68 35.49 751.27 59.69 827.06 98.82 875.43 150.58 887.83 202.48 858.2 246.66 793.35 292.61 700.72 326.32 598.2 345.1Q598.14 345.11 598.14 345.11" opacity="0.40"></path><path d="M564.2 173.5C432.43 206.36 416.24 240.79 500.45 308.59 639.72 412.39 747.67 579.78 786.65 752.08 766.76 813.53 698.51 706.12 621.44 490.38 533.33 405.2 466.15 565.8 433.29 814.88 402.71 717.49 464.76 514.52 450.07 737.81 368.02 773.19 225.21 692.43 61.86 582.94 -46.43 455.78 -43.56 369.34 88.2 336.48 323.88 315.53 245.62 464.93 97.6 401.23 45.37 220.53 51.89 14.35 90.84 -29.44 148.34 139.58 202.81 356.71 235.67 338.88 268.53 89.8 276.67 -57.47 276.12 51.79 294.12 291.61 338.88 433.87 434.18 415.49 565.63 286.26 719.78 170.16 831.92 123.31 845.57 112.46 740.87 140.64 564.2 173.5Q564.2 173.5 564.2 173.5" opacity="0.93"></path><path d="M530.15 315.96C410.77 344.13 372.46 417.08 413.93 527.73 515.27 631.4 620.56 733 691.86 763.43 733.73 695.35 730.54 534.78 701.71 386.29 658.87 391.67 616.21 570.07 588.04 780.84 559.88 815.99 548.87 645.91 542.9 443.02 522.92 350.71 482.15 411.15 403.36 533.49 295.15 660.66 159.98 714.5 38 706.4 -24.11 665.52 2.77 616.19 122.15 588.02 275.05 559.85 393.95 555.52 438.89 547.59 405.78 506.88 326.68 409.08 245.44 245 166.25 85.74 124.16 -4.57 117.09 67.05 122.85 249.28 145.35 407.97 173.51 372.89 201.68 162.13 232.84 -4.89 275.89 10.34 331.76 179.46 417.8 369.92 533.91 474.93 652.07 481.41 761.05 423.77 814.83 368.92 790.56 307.08 683.08 287.79 530.21 315.95Q530.15 315.96 530.15 315.96" opacity="0.81"></path><path d="M496.15 574.96C365.78 620.93 440.18 703.01 547.73 612.2 613 501.12 649.4 380.4 658.42 329.65 659 401.73 644.24 575.42 620.77 746.84 597.3 792.84 567.34 684.06 526.08 511.01 476.38 362.64 403.35 309.04 307.31 337.17 207.45 423.12 105.66 507.55 32.08 556.95 9.43 597.22 51.65 602.16 156.15 578.69 284.21 555.22 395.45 505.55 460.99 424.61 474.07 334.54 444.48 213.48 396.69 96.76 332.64 37.86 282.3 66.55 256.49 197.69 234.08 353.54 234.94 452.82 258.41 406.89 281.87 235.48 325.72 71.27 388.81 16.37 455.29 84.3 542.26 229.92 637.08 371.77 715.64 484.57 770.14 538.77 774.28 556.47 725.96 551.76 624.25 551.48 496.21 574.95Q496.15 574.96 496.15 574.96" opacity="0.38"></path><path d="M462.42 591.24C375.05 610.02 318.67 608.84 298.6 582.26 313.76 547.32 351.08 479.89 394.17 392.69 446.38 326.61 486.68 292.49 507.97 326.41 527.72 430.38 528.71 580.53 509.93 712.79 491.15 762.91 454.38 708.58 402.09 589.66 348.26 448.05 278.66 336.73 201.84 276.59 105.51 269.47 78.67 334.62 190.42 321.47 292.95 302.69 389.19 255.66 460.77 192.48 503.44 139.28 516.15 93.54 508.75 84.26 483.03 119.79 455.78 211.19 438.64 339.03 418.92 444.19 416.17 490.91 434.95 440.79 453.73 308.53 492.26 165.99 544.52 75.78 594.2 55.63 650.76 109.67 701.09 200.36 733.1 312.17 740.3 408.91 711.4 476.39 653.58 535.51 564.95 572.46 462.42 591.24Q462.42 591.24 462.42 591.24" opacity="0.19"></path><path d="M428.15 342.3C308.77 370.47 264.12 310.95 275.08 249.98 325.31 288.85 356.22 468.07 328.06 678.84 299.89 713.99 217.97 549.08 130.83 378.95 82.96 250.69 104.77 201.36 224.15 173.19 377.06 145.02 497.64 143.35 552.55 234.7 562.69 367.91 560.99 509.99 589.16 474.84 617.33 264.07 670.03 107.68 696.8 105.73 678.81 203.62 581.06 314.13 428.15 342.3Q428.15 342.3 428.15 342.3" opacity="0.39"></path><path d="M394.21 173.32C252.78 210.88 230.16 359.64 192.61 644.83 155.05 639.62 116.78 376.98 258.21 339.42 457.3 301.87 582.75 503.62 620.31 508.83 657.86 223.64 593.3 135.77 394.21 173.32Q394.21 173.32 394.21 173.32" opacity="0.21"></path></g></svg>